<svg width="40" height="40" viewBox="0 0 40 40" fill="none" xmlns="http://www.w3.org/2000/svg">
<path fill-rule="evenodd" clip-rule="evenodd" d="M38.2779 24.038C38.0665 24.277 37.7891 24.5012 37.4456 24.7015L23.1524 33.0323C21.3741 34.0679 18.5005 34.0679 16.7342 33.0323L2.53445 24.7029C2.20036 24.5067 1.92975 24.2876 1.72259 24.0541C0.839237 25.0523 1.1084 26.307 2.53358 27.1426L16.7347 35.4733C18.501 36.509 21.3746 36.509 23.1516 35.4733L37.4448 27.1426C38.8867 26.3018 39.1656 25.0386 38.2779 24.038Z" fill="url(#paint0_linear_23611_372103)"/>
<g style="mix-blend-mode:color-burn">
<path fill-rule="evenodd" clip-rule="evenodd" d="M38.2779 24.038C38.0665 24.277 37.7891 24.5012 37.4456 24.7015L23.1524 33.0323C21.3741 34.0679 18.5005 34.0679 16.7342 33.0323L2.53445 24.7029C2.20036 24.5067 1.92975 24.2876 1.72259 24.0541C0.839237 25.0523 1.1084 26.307 2.53358 27.1426L16.7347 35.4733C18.501 36.509 21.3746 36.509 23.1516 35.4733L37.4448 27.1426C38.8867 26.3018 39.1656 25.0386 38.2779 24.038Z" fill="url(#paint1_linear_23611_372103)"/>
</g>
<path fill-rule="evenodd" clip-rule="evenodd" d="M38.2776 19.3968C38.0663 19.6358 37.7888 19.86 37.4454 20.0603L23.1522 28.391C21.3739 29.4267 18.5003 29.4267 16.734 28.391L2.5342 20.0617C2.19998 19.8654 1.92929 19.6462 1.7221 19.4126C0.838734 20.4108 1.10789 21.6655 2.53308 22.5011L16.7342 30.8319C18.5005 31.8675 21.3741 31.8675 23.1511 30.8319L37.4443 22.5011C38.886 21.6604 39.165 20.3974 38.2776 19.3968Z" fill="url(#paint2_linear_23611_372103)"/>
<g style="mix-blend-mode:color-burn">
<path fill-rule="evenodd" clip-rule="evenodd" d="M38.2775 19.3969C38.0662 19.6358 37.7888 19.8601 37.4454 20.0603L23.1522 28.391C21.3739 29.4267 18.5003 29.4267 16.734 28.391L2.5342 20.0617C2.20003 19.8655 1.92936 19.6462 1.72218 19.4127C0.838715 20.4109 1.10785 21.6657 2.53308 22.5013L16.7342 30.8321C18.5005 31.8677 21.3741 31.8677 23.1511 30.8321L37.4443 22.5013C38.8861 21.6606 39.165 20.3975 38.2775 19.3969Z" fill="url(#paint3_linear_23611_372103)"/>
</g>
<path d="M25.4588 19.1818C25.1957 19.3325 24.9239 19.4674 24.645 19.5859C24.5865 19.6179 24.5209 19.6347 24.4543 19.6347C24.3876 19.6347 24.3221 19.6179 24.2635 19.5859C22.6555 18.8452 21.0435 18.1081 19.4275 17.3746C18.9086 17.1416 18.3949 16.9032 17.884 16.6648C16.8248 16.1733 15.7655 15.6817 14.6582 15.2266C13.5474 14.7565 12.3356 14.5822 11.139 14.7202C10.8046 14.7564 10.4745 14.8249 10.1531 14.9249C10.0935 14.9477 10.03 14.9577 9.96637 14.9545C9.90277 14.9512 9.84053 14.9347 9.78355 14.906L9.58878 14.8158C9.33046 14.6889 9.06286 14.5822 8.78834 14.4966C8.05193 14.2866 7.32086 14.3512 6.78724 14.6663C6.71143 14.7105 6.63877 14.76 6.56979 14.8145C6.10286 15.1862 6.18691 15.6844 6.78324 16.0602C6.98601 16.1948 7.19813 16.3107 7.41558 16.4305C7.51431 16.4857 7.54899 16.5329 7.48762 16.6123C6.80458 17.5779 7.24349 18.421 8.42147 19.1239C10.6583 20.4545 12.9062 21.7778 15.1652 23.094C16.3738 23.8024 17.5821 24.5112 18.7898 25.2205C18.8364 25.2564 18.8933 25.2759 18.9519 25.2759C19.0105 25.2759 19.0675 25.2564 19.114 25.2205L19.1394 25.2057C19.4582 25.0171 19.7757 24.8286 20.0972 24.6427C20.3836 24.4748 20.6731 24.3088 20.9657 24.1445L20.9804 24.135C21.1338 24.0461 21.1058 24.0004 20.9604 23.9142C18.7067 22.5989 16.4592 21.2818 14.218 19.9629L13.004 19.2505C11.4867 18.359 9.96587 17.4688 8.44148 16.58C8.25605 16.4723 8.26538 16.4022 8.39879 16.2918C8.64415 16.089 8.90663 15.9083 9.18322 15.7518C9.34865 15.6548 9.52207 15.5632 9.70351 15.4824C9.76364 15.4457 9.83229 15.4257 9.90254 15.4243C9.9728 15.4228 10.0422 15.4401 10.1037 15.4744C11.5036 16.1082 12.9062 16.7394 14.3114 17.3678H14.3194L15.508 17.9065C15.9309 18.0964 16.3525 18.289 16.7741 18.4802C17.7799 18.9381 18.7858 19.396 19.8117 19.8363C21.2132 20.4507 22.7845 20.546 24.2488 20.1057C24.3004 20.0878 24.3551 20.0812 24.4094 20.0863C24.4637 20.0914 24.5163 20.1081 24.5637 20.1353C24.8118 20.2525 25.0653 20.3669 25.3174 20.4814L25.5949 20.6067C25.9249 20.7533 26.2838 20.8218 26.644 20.8069C27.0043 20.792 27.3564 20.694 27.6734 20.5205C28.3164 20.1461 28.4044 19.6518 27.8948 19.2613C27.628 19.0526 27.3505 18.8465 27.0704 18.6432C27.001 18.592 26.9757 18.5529 27.033 18.4883C27.9228 17.4809 27.5173 16.5719 26.41 15.7235C24.2755 14.0949 22.141 12.4676 20.0065 10.8417L19.7797 10.668C19.5596 10.4996 19.3395 10.3313 19.1127 10.1656C19.0153 10.0956 19.0313 10.0525 19.1193 9.98652C19.2841 9.86608 19.4551 9.7546 19.6316 9.65254C19.9367 9.47581 20.2542 9.32188 20.5815 9.19196C20.6588 9.15034 20.7459 9.13084 20.8333 9.13559C20.9208 9.14034 21.0053 9.16915 21.0778 9.2189C22.7115 10.1858 24.352 11.1505 25.9991 12.113L27.3332 12.8914L28.6673 13.6752C30.301 14.6394 31.9326 15.6009 33.5619 16.5598C33.6203 16.609 33.6933 16.6369 33.7693 16.6391C33.8453 16.6413 33.9198 16.6176 33.9808 16.5719L33.9969 16.5598C34.2761 16.3901 34.558 16.2227 34.8426 16.0575C35.1655 15.8689 35.4923 15.6831 35.8192 15.4959C35.9526 15.4218 35.9526 15.3801 35.8192 15.3033C34.679 14.6372 33.5379 13.9687 32.396 13.2981C30.0747 11.9316 27.745 10.5692 25.4068 9.21082C24.2181 8.524 22.7774 8.26812 21.1378 8.66271C21.0861 8.67997 21.0312 8.6853 20.9772 8.6783C20.9231 8.67131 20.8713 8.65218 20.8256 8.62231C20.5908 8.4809 20.3574 8.3368 20.1026 8.20617C19.7831 8.05053 19.4351 7.96336 19.0806 7.95015C18.7261 7.93694 18.3727 7.99797 18.0428 8.12941C17.96 8.16712 17.884 8.20483 17.8146 8.24523C17.281 8.55497 17.1543 8.96168 17.4678 9.36838C17.6249 9.54988 17.8042 9.71053 18.0014 9.84646C18.0761 9.90303 18.1495 9.95959 18.2202 10.0161C18.2909 10.0727 18.3322 10.1145 18.2682 10.1858C17.4905 11.0625 17.7519 11.8988 18.571 12.7069C18.9708 13.0779 19.3956 13.4203 19.8424 13.7317C20.0052 13.8516 20.1679 13.9701 20.328 14.0913C22.2633 15.5574 24.2052 17.0217 26.1539 18.4842C26.2673 18.5691 26.2726 18.6189 26.1619 18.7078C25.9376 18.8812 25.7023 19.0395 25.4575 19.1818M2.55691 14.1074L16.8501 5.77671C18.6284 4.7411 21.502 4.7411 23.2683 5.77671L37.4654 14.1074C39.2317 15.1444 39.2237 16.8238 37.4454 17.8607L23.1522 26.1915C21.3739 27.2271 18.5003 27.2271 16.734 26.1915L2.53424 17.8621C0.767932 16.8251 0.775935 15.1444 2.55425 14.1088" fill="url(#paint4_linear_23611_372103)"/>
<g style="mix-blend-mode:color-burn">
<path d="M25.4588 19.1818C25.1957 19.3325 24.9239 19.4674 24.645 19.5859C24.5865 19.6179 24.5209 19.6347 24.4543 19.6347C24.3876 19.6347 24.3221 19.6179 24.2635 19.5859C22.6555 18.8452 21.0435 18.1081 19.4275 17.3746C18.9086 17.1416 18.3949 16.9032 17.884 16.6648C16.8248 16.1733 15.7655 15.6817 14.6582 15.2266C13.5474 14.7565 12.3356 14.5822 11.139 14.7202C10.8046 14.7564 10.4745 14.8249 10.1531 14.9249C10.0935 14.9477 10.03 14.9577 9.96637 14.9545C9.90277 14.9512 9.84053 14.9347 9.78355 14.906L9.58878 14.8158C9.33046 14.6889 9.06286 14.5822 8.78834 14.4966C8.05193 14.2866 7.32086 14.3512 6.78724 14.6663C6.71143 14.7105 6.63877 14.76 6.56979 14.8145C6.10286 15.1862 6.18691 15.6844 6.78324 16.0602C6.98601 16.1948 7.19813 16.3107 7.41558 16.4305C7.51431 16.4857 7.54899 16.5329 7.48762 16.6123C6.80458 17.5779 7.24349 18.421 8.42147 19.1239C10.6583 20.4545 12.9062 21.7778 15.1652 23.094C16.3738 23.8024 17.5821 24.5112 18.7898 25.2205C18.8364 25.2564 18.8933 25.2759 18.9519 25.2759C19.0105 25.2759 19.0675 25.2564 19.114 25.2205L19.1394 25.2057C19.4582 25.0171 19.7757 24.8286 20.0972 24.6427C20.3836 24.4748 20.6731 24.3088 20.9657 24.1445L20.9804 24.135C21.1338 24.0461 21.1058 24.0004 20.9604 23.9142C18.7067 22.5989 16.4592 21.2818 14.218 19.9629L13.004 19.2505C11.4867 18.359 9.96587 17.4688 8.44148 16.58C8.25605 16.4723 8.26538 16.4022 8.39879 16.2918C8.64415 16.089 8.90663 15.9083 9.18322 15.7518C9.34865 15.6548 9.52207 15.5632 9.70351 15.4824C9.76364 15.4457 9.83229 15.4257 9.90254 15.4243C9.9728 15.4228 10.0422 15.4401 10.1037 15.4744C11.5036 16.1082 12.9062 16.7394 14.3114 17.3678H14.3194L15.508 17.9065C15.9309 18.0964 16.3525 18.289 16.7741 18.4802C17.7799 18.9381 18.7858 19.396 19.8117 19.8363C21.2132 20.4507 22.7845 20.546 24.2488 20.1057C24.3004 20.0878 24.3551 20.0812 24.4094 20.0863C24.4637 20.0914 24.5163 20.1081 24.5637 20.1353C24.8118 20.2525 25.0653 20.3669 25.3174 20.4814L25.5949 20.6067C25.9249 20.7533 26.2838 20.8218 26.644 20.8069C27.0043 20.792 27.3564 20.694 27.6734 20.5205C28.3164 20.1461 28.4044 19.6518 27.8948 19.2613C27.628 19.0526 27.3505 18.8465 27.0704 18.6432C27.001 18.592 26.9757 18.5529 27.033 18.4883C27.9228 17.4809 27.5173 16.5719 26.41 15.7235C24.2755 14.0949 22.141 12.4676 20.0065 10.8417L19.7797 10.668C19.5596 10.4996 19.3395 10.3313 19.1127 10.1656C19.0153 10.0956 19.0313 10.0525 19.1193 9.98652C19.2841 9.86608 19.4551 9.7546 19.6316 9.65254C19.9367 9.47581 20.2542 9.32188 20.5815 9.19196C20.6588 9.15034 20.7459 9.13084 20.8333 9.13559C20.9208 9.14034 21.0053 9.16915 21.0778 9.2189C22.7115 10.1858 24.352 11.1505 25.9991 12.113L27.3332 12.8914L28.6673 13.6752C30.301 14.6394 31.9326 15.6009 33.5619 16.5598C33.6203 16.609 33.6933 16.6369 33.7693 16.6391C33.8453 16.6413 33.9198 16.6176 33.9808 16.5719L33.9969 16.5598C34.2761 16.3901 34.558 16.2227 34.8426 16.0575C35.1655 15.8689 35.4923 15.6831 35.8192 15.4959C35.9526 15.4218 35.9526 15.3801 35.8192 15.3033C34.679 14.6372 33.5379 13.9687 32.396 13.2981C30.0747 11.9316 27.745 10.5692 25.4068 9.21082C24.2181 8.524 22.7774 8.26812 21.1378 8.66271C21.0861 8.67997 21.0312 8.6853 20.9772 8.6783C20.9231 8.67131 20.8713 8.65218 20.8256 8.62231C20.5908 8.4809 20.3574 8.3368 20.1026 8.20617C19.7831 8.05053 19.4351 7.96336 19.0806 7.95015C18.7261 7.93694 18.3727 7.99797 18.0428 8.12941C17.96 8.16712 17.884 8.20483 17.8146 8.24523C17.281 8.55497 17.1543 8.96168 17.4678 9.36838C17.6249 9.54988 17.8042 9.71053 18.0014 9.84646C18.0761 9.90303 18.1495 9.95959 18.2202 10.0161C18.2909 10.0727 18.3322 10.1145 18.2682 10.1858C17.4905 11.0625 17.7519 11.8988 18.571 12.7069C18.9708 13.0779 19.3956 13.4203 19.8424 13.7317C20.0052 13.8516 20.1679 13.9701 20.328 14.0913C22.2633 15.5574 24.2052 17.0217 26.1539 18.4842C26.2673 18.5691 26.2726 18.6189 26.1619 18.7078C25.9376 18.8812 25.7023 19.0395 25.4575 19.1818M2.55691 14.1074L16.8501 5.77671C18.6284 4.7411 21.502 4.7411 23.2683 5.77671L37.4654 14.1074C39.2317 15.1444 39.2237 16.8238 37.4454 17.8607L23.1522 26.1915C21.3739 27.2271 18.5003 27.2271 16.734 26.1915L2.53424 17.8621C0.767932 16.8251 0.775935 15.1444 2.55425 14.1088" fill="url(#paint5_linear_23611_372103)"/>
</g>
<path fill-rule="evenodd" clip-rule="evenodd" d="M27.4887 17.6652C27.6411 16.9772 27.2076 16.3346 26.41 15.7235C24.2755 14.0949 22.141 12.4676 20.0065 10.8417L19.7797 10.668L19.7797 10.6679C19.5596 10.4996 19.3395 10.3313 19.1127 10.1656C19.0153 10.0956 19.0313 10.0525 19.1193 9.98652C19.2841 9.86608 19.4551 9.7546 19.6316 9.65254C19.9367 9.47581 20.2542 9.32188 20.5815 9.19196C20.6588 9.15034 20.7459 9.13084 20.8333 9.13559C20.9208 9.14034 21.0053 9.16915 21.0778 9.2189C22.7115 10.1858 24.352 11.1505 25.9991 12.113L27.3332 12.8914L28.6673 13.6752C30.301 14.6394 31.9326 15.6009 33.5619 16.5598C33.6203 16.609 33.6933 16.6369 33.7693 16.6391C33.8453 16.6413 33.9198 16.6176 33.9808 16.5719L33.9969 16.5598C34.2761 16.3901 34.558 16.2227 34.8426 16.0575C35.0968 15.9091 35.3534 15.7623 35.6105 15.6153C35.68 15.5755 35.7496 15.5358 35.8192 15.4959C35.9526 15.4218 35.9526 15.3801 35.8192 15.3033C34.679 14.6372 33.5379 13.9687 32.396 13.2981C30.0747 11.9316 27.745 10.5692 25.4068 9.21082C24.2181 8.524 22.7774 8.26812 21.1378 8.66271C21.0861 8.67997 21.0312 8.6853 20.9772 8.6783C20.9231 8.67131 20.8713 8.65218 20.8256 8.62231C20.7981 8.60574 20.7706 8.58913 20.7431 8.57251C20.5358 8.44731 20.3275 8.3215 20.1026 8.20617C19.7831 8.05053 19.4351 7.96336 19.0806 7.95015C18.7261 7.93694 18.3727 7.99797 18.0428 8.12941C17.96 8.16712 17.884 8.20483 17.8146 8.24523C17.281 8.55497 17.1543 8.96168 17.4678 9.36838C17.6249 9.54988 17.8042 9.71053 18.0014 9.84646C18.0761 9.90303 18.1495 9.95959 18.2202 10.0161C18.2909 10.0727 18.3322 10.1145 18.2682 10.1858C17.4905 11.0625 17.7519 11.8988 18.571 12.7069C18.9708 13.0779 19.3956 13.4203 19.8424 13.7317C19.8789 13.7586 19.9155 13.7854 19.952 13.8123C20.0781 13.9049 20.2038 13.9973 20.328 14.0913C20.4959 14.2184 20.6637 14.3456 20.8317 14.4727C19.4305 14.3338 17.9362 14.5783 16.8503 15.2062L15.8981 15.7573C15.4899 15.5765 15.0775 15.3989 14.6582 15.2266C13.5474 14.7565 12.3356 14.5822 11.139 14.7202C10.8046 14.7564 10.4745 14.8249 10.1531 14.9249C10.0935 14.9477 10.03 14.9577 9.96637 14.9545C9.90277 14.9512 9.84053 14.9347 9.78355 14.906L9.58878 14.8158C9.33047 14.6889 9.06286 14.5822 8.78834 14.4966C8.05193 14.2866 7.32087 14.3512 6.78724 14.6663C6.71143 14.7105 6.63876 14.76 6.56979 14.8145C6.10286 15.1862 6.18691 15.6844 6.78324 16.0602C6.97713 16.1889 7.17957 16.3005 7.38704 16.4148L7.41558 16.4305C7.51431 16.4857 7.54899 16.5329 7.48762 16.6123C6.80458 17.5779 7.24349 18.421 8.42147 19.1239C8.69433 19.2862 8.96735 19.4484 9.24054 19.6105L7.36529 20.6959L2.53424 17.8621C0.767933 16.8251 0.775936 15.1444 2.55424 14.1088L2.55691 14.1074L16.8501 5.77671C18.6284 4.7411 21.502 4.7411 23.2683 5.77671L37.4654 14.1074C39.2317 15.1444 39.2237 16.8238 37.4454 17.8607L32.6354 20.6642L27.4887 17.6652ZM13.6371 17.066L11.4441 18.3352C10.4448 17.7495 9.44389 17.1645 8.44148 16.58C8.25605 16.4723 8.26538 16.4022 8.39879 16.2918C8.64415 16.089 8.90663 15.9083 9.18322 15.7518C9.34865 15.6548 9.52207 15.5632 9.70351 15.4824C9.76364 15.4457 9.83229 15.4257 9.90254 15.4243C9.9728 15.4228 10.0422 15.4401 10.1037 15.4744C11.2796 16.0068 12.4574 16.5373 13.6371 17.066Z" fill="url(#paint6_linear_23611_372103)"/>
<path d="M6.78192 14.6743C7.31555 14.3591 8.05195 14.2945 8.78302 14.5046C9.05754 14.5901 9.32515 14.6968 9.58346 14.8238L9.77823 14.914C9.83521 14.9427 9.89745 14.9592 9.96105 14.9624C10.0246 14.9657 10.0882 14.9556 10.1478 14.9328C10.4691 14.8329 10.7993 14.7643 11.1336 14.7281C12.3303 14.5901 13.5421 14.7645 14.6529 15.2345C15.7602 15.6897 16.8194 16.1772 17.8787 16.6728C18.3896 16.9111 18.9032 17.1495 19.4222 17.3825C21.0373 18.116 22.6493 18.8531 24.2582 19.5938C24.3168 19.6259 24.3823 19.6426 24.449 19.6426C24.5156 19.6426 24.5812 19.6259 24.6397 19.5938C24.9186 19.4753 25.1903 19.3404 25.4535 19.1898C25.6983 19.0475 25.9336 18.8891 26.1579 18.7157C26.2686 18.6295 26.2633 18.5811 26.1499 18.4922C24.203 17.0243 22.2624 15.5568 20.328 14.0898C20.1679 13.9686 20.0052 13.8501 19.8424 13.7302C19.3943 13.4194 18.9681 13.0774 18.5671 12.7067C17.7479 11.8987 17.4865 11.0624 18.2642 10.1857C18.3283 10.1143 18.2882 10.0726 18.2162 10.016C18.1442 9.95945 18.0721 9.90288 17.9974 9.84632C17.8002 9.71039 17.6209 9.54974 17.4638 9.36824C17.1503 8.96423 17.2797 8.56022 17.8106 8.24509C17.88 8.20469 17.9561 8.16698 18.0388 8.12927C18.3688 7.99783 18.7221 7.9368 19.0766 7.95001C19.4311 7.96322 19.7791 8.05039 20.0986 8.20603C20.3534 8.3407 20.5868 8.47537 20.8216 8.62216C20.8674 8.65203 20.9191 8.67117 20.9732 8.67816C21.0272 8.68515 21.0821 8.67982 21.1338 8.66257C22.7734 8.26933 24.2142 8.5279 25.4028 9.21068C27.7526 10.5655 30.0836 11.9279 32.396 13.2979C33.5388 13.9677 34.6808 14.637 35.8219 15.3059C35.9553 15.3826 35.9459 15.4244 35.8219 15.4985C35.495 15.6856 35.1682 15.8715 34.8453 16.06C34.5581 16.2261 34.2752 16.3927 33.9969 16.5597L33.9809 16.5691C33.9201 16.6152 33.8458 16.6393 33.7698 16.6376C33.6938 16.6359 33.6206 16.6084 33.562 16.5597C31.9344 15.5999 30.3033 14.6415 28.6686 13.6844L27.3345 12.9007L26.0005 12.1223C24.3569 11.1598 22.7165 10.1951 21.0791 9.22818C21.0067 9.17843 20.9222 9.14962 20.8347 9.14488C20.7472 9.14013 20.6601 9.15962 20.5828 9.20125C20.2555 9.33116 19.938 9.4851 19.633 9.66182C19.4565 9.76388 19.2855 9.87537 19.1207 9.99581C19.0326 10.0618 19.0166 10.1049 19.114 10.1749C19.3395 10.3406 19.5596 10.5089 19.7811 10.6772L20.0079 10.851C22.1424 12.4769 24.2769 14.1042 26.4114 15.7328C27.5186 16.5812 27.9242 17.4835 27.0344 18.4976C26.977 18.5622 27.0024 18.6013 27.0717 18.6524C27.3519 18.8558 27.6254 19.0565 27.8962 19.2706C28.4058 19.6611 28.3178 20.1554 27.6747 20.5298C27.3578 20.7033 27.0057 20.8013 26.6454 20.8162C26.2851 20.8311 25.9262 20.7626 25.5963 20.6159L25.3188 20.4907C25.0666 20.3762 24.8132 20.2618 24.565 20.1446C24.5176 20.1174 24.465 20.1007 24.4108 20.0956C24.3565 20.0905 24.3017 20.0971 24.2502 20.115C22.7859 20.5553 21.2146 20.4599 19.8131 19.8456C18.7872 19.4053 17.7813 18.9474 16.7754 18.4895C16.3538 18.2983 15.9323 18.1057 15.5094 17.9158L14.3207 17.3771H14.3127C12.9093 16.7486 11.5085 16.1139 10.1104 15.4729C10.0489 15.4386 9.97949 15.4213 9.90923 15.4228C9.83898 15.4242 9.77033 15.4442 9.7102 15.4809C9.52876 15.5658 9.35533 15.6574 9.18991 15.7503C8.90712 15.9116 8.63923 16.0982 8.38947 16.3078C8.25606 16.4183 8.24672 16.4883 8.43216 16.596C9.95833 17.4839 11.4792 18.3741 12.9947 19.2665L14.2087 19.9789C16.4517 21.2978 18.6991 22.6149 20.951 23.9302C21.0965 24.0164 21.1245 24.0649 20.971 24.151L20.9564 24.1605C20.6647 24.3248 20.3752 24.4909 20.0879 24.6588C19.7664 24.8446 19.4489 25.0331 19.13 25.2217L19.1047 25.2365C19.0581 25.2724 19.0012 25.2919 18.9426 25.2919C18.884 25.2919 18.827 25.2724 18.7805 25.2365C17.5745 24.5272 16.3663 23.8184 15.1559 23.11C12.9013 21.7903 10.6534 20.4669 8.41215 19.14C7.23017 18.437 6.79126 17.5939 7.4783 16.6283C7.53433 16.5489 7.50498 16.5018 7.40626 16.4465C7.18881 16.3267 6.9767 16.2041 6.77392 16.0762C6.17759 15.7005 6.09354 15.2022 6.56047 14.8305C6.63048 14.7731 6.70448 14.7209 6.78192 14.6743Z" fill="white"/>
<defs>
<linearGradient id="paint0_linear_23611_372103" x1="38.7847" y1="25.5206" x2="1.21498" y2="25.5206" gradientUnits="userSpaceOnUse">
<stop stop-color="#AE9AEE"/>
<stop offset="1" stop-color="#FFC5C2"/>
</linearGradient>
<linearGradient id="paint1_linear_23611_372103" x1="38.7847" y1="25.5206" x2="1.21498" y2="25.5206" gradientUnits="userSpaceOnUse">
<stop stop-color="#AE9AEE"/>
<stop offset="1" stop-color="#FFC5C2"/>
</linearGradient>
<linearGradient id="paint2_linear_23611_372103" x1="38.7842" y1="20.8782" x2="1.2145" y2="20.8782" gradientUnits="userSpaceOnUse">
<stop stop-color="#AE9AEE"/>
<stop offset="1" stop-color="#FFC5C2"/>
</linearGradient>
<linearGradient id="paint3_linear_23611_372103" x1="38.7842" y1="20.8783" x2="1.2145" y2="20.8783" gradientUnits="userSpaceOnUse">
<stop stop-color="#AE9AEE"/>
<stop offset="1" stop-color="#FFC5C2"/>
</linearGradient>
<linearGradient id="paint4_linear_23611_372103" x1="38.7847" y1="15.9841" x2="1.21499" y2="15.9841" gradientUnits="userSpaceOnUse">
<stop stop-color="#AE9AEE"/>
<stop offset="1" stop-color="#FFC5C2"/>
</linearGradient>
<linearGradient id="paint5_linear_23611_372103" x1="38.7847" y1="15.9841" x2="1.21499" y2="15.9841" gradientUnits="userSpaceOnUse">
<stop stop-color="#AE9AEE"/>
<stop offset="1" stop-color="#FFC5C2"/>
</linearGradient>
<linearGradient id="paint6_linear_23611_372103" x1="38.7847" y1="12.848" x2="1.21499" y2="12.848" gradientUnits="userSpaceOnUse">
<stop stop-color="#AE9AEE"/>
<stop offset="1" stop-color="#FFC5C2"/>
</linearGradient>
</defs>
</svg>
